0
SECTION
2
HEADER
9
$INSUNITS
70
4
9
$ACADVER
1
AC1014
9
$HANDSEED
5
FFFF
0
ENDSEC
0
SECTION
2
TABLES
0
TABLE
2
VPORT
5
8
100
AcDbSymbolTable
0
ENDTAB
0
TABLE
2
LTYPE
5
5
100
AcDbSymbolTable
0
LTYPE
5
14
100
AcDbSymbolTableRecord
100
AcDbLinetypeTableRecord
2
BYBLOCK
70
0
0
LTYPE
5
15
100
AcDbSymbolTableRecord
100
AcDbLinetypeTableRecord
2
BYLAYER
70
0
0
ENDTAB
0
TABLE
2
LAYER
5
2
100
AcDbSymbolTable
70
2
0
LAYER
5
50
100
AcDbSymbolTableRecord
100
AcDbLayerTableRecord
2
0
70
0
6
CONTINUOUS
0
ENDTAB
0
TABLE
2
STYLE
5
3
100
AcDbSymbolTable
70
1
0
STYLE
5
11
100
AcDbSymbolTableRecord
100
AcDbTextStyleTableRecord
2
STANDARD
70
0
0
ENDTAB
0
TABLE
2
VIEW
5
6
100
AcDbSymbolTable
70
0
0
ENDTAB
0
TABLE
2
UCS
5
7
100
AcDbSymbolTable
70
0
0
ENDTAB
0
TABLE
2
APPID
5
9
100
AcDbSymbolTable
70
2
0
APPID
5
12
100
AcDbSymbolTableRecord
100
AcDbRegAppTableRecord
2
ACAD
70
0
0
ENDTAB
0
TABLE
2
DIMSTYLE
5
A
100
AcDbSymbolTable
70
1
0
ENDTAB
0
TABLE
2
BLOCK_RECORD
5
1
100
AcDbSymbolTable
70
1
0
BLOCK_RECORD
5
1F
100
AcDbSymbolTableRecord
100
AcDbBlockTableRecord
2
*MODEL_SPACE
0
BLOCK_RECORD
5
1B
100
AcDbSymbolTableRecord
100
AcDbBlockTableRecord
2
*PAPER_SPACE
0
ENDTAB
0
ENDSEC
0
SECTION
2
BLOCKS
0
BLOCK
5
20
100
AcDbEntity
100
AcDbBlockBegin
2
*MODEL_SPACE
0
ENDBLK
5
21
100
AcDbEntity
100
AcDbBlockEnd
0
BLOCK
5
1C
100
AcDbEntity
100
AcDbBlockBegin
2
*PAPER_SPACE
0
ENDBLK
5
1D
100
AcDbEntity
100
AcDbBlockEnd
0
ENDSEC
0
SECTION
2
ENTITIES
0
ARC
5
100
100
AcDbEntity
8
0
100
AcDbCircle
10
3.0000007450580846
20
-76.000001922249766
30
0
40
3.0000000000000249
210
0
220
0
230
1
100
AcDbArc
50
180
51
269.99999999999949
0
LINE
5
101
100
AcDbEntity
8
0
100
AcDbLine
10
3.0000007450580579
20
-79.000001922249794
30
0
11
49.178605752403328
21
-79.000001922249794
31
0
0
LINE
5
102
100
AcDbEntity
8
0
100
AcDbLine
10
7.4505805969238281e-07
20
-20.500001095235341
30
0
11
37.000001311302185
21
-20.500001095235348
31
0
0
LINE
5
103
100
AcDbEntity
8
0
100
AcDbLine
10
38.000001311302185
20
-19.500001095235355
30
0
11
38.000001311302185
21
-16.740001095235336
31
0
0
ARC
5
104
100
AcDbEntity
8
0
100
AcDbCircle
10
37.000001311302185
20
-19.500001095235355
30
0
40
0.99999999999999645
210
-0
220
0
230
1
100
AcDbArc
50
-90
51
0
0
ARC
5
105
100
AcDbEntity
8
0
100
AcDbCircle
10
39.000001311302185
20
-16.740001095235336
30
0
40
0.99999999999999645
210
0
220
-0
230
1
100
AcDbArc
50
90
51
180
0
LINE
5
106
100
AcDbEntity
8
0
100
AcDbLine
10
39.000001311302185
20
-15.740001095235341
30
0
11
56.150000789761535
21
-15.740001095235341
31
0
0
ARC
5
107
100
AcDbEntity
8
0
100
AcDbCircle
10
56.150000789761535
20
-14.740001095235344
30
0
40
0.99999999999999645
210
-0
220
0
230
1
100
AcDbArc
50
-90
51
0
0
LINE
5
108
100
AcDbEntity
8
0
100
AcDbLine
10
57.150000789761535
20
-14.740001095235344
30
0
11
57.150000789761535
21
-13.360001095235345
31
0
0
LINE
5
109
100
AcDbEntity
8
0
100
AcDbLine
10
77.150000998377806
20
-13.360001095235345
30
0
11
77.150000998377806
21
-14.740001095235371
31
0
0
ARC
5
110
100
AcDbEntity
8
0
100
AcDbCircle
10
78.15000099837782
20
-14.740001095235344
30
0
40
1.0000000000000142
210
0
220
0
230
1
100
AcDbArc
50
180
51
270
0
LINE
5
111
100
AcDbEntity
8
0
100
AcDbLine
10
78.15000099837782
20
-15.740001095235359
30
0
11
95.200000998377817
21
-15.740001095235359
31
0
0
LWPOLYLINE
5
112
100
AcDbEntity
8
0
100
AcDbPolyline
90
4
70
1
43
0.0
10
74.15000099837782
20
-30.3600013038516
10
74.15000099837782
20
-16.360001095235344
10
60.150000789761542
20
-16.360001095235344
10
60.150000789761542
20
-30.3600013038516
0
ARC
5
113
100
AcDbEntity
8
0
100
AcDbCircle
10
95.200000998377817
20
-16.740001095235357
30
0
40
0.99999999999999645
210
0
220
-0
230
1
100
AcDbArc
50
0
51
90
0
LINE
5
114
100
AcDbEntity
8
0
100
AcDbLine
10
96.200000998377817
20
-16.740001095235357
30
0
11
96.200000998377817
21
-17.120001095235359
31
0
0
ARC
5
115
100
AcDbEntity
8
0
100
AcDbCircle
10
97.200000998377817
20
-17.120001095235359
30
0
40
0.99999999999999645
210
0
220
0
230
1
100
AcDbArc
50
180
51
270
0
LINE
5
116
100
AcDbEntity
8
0
100
AcDbLine
10
97.200000998377817
20
-18.120001095235352
30
0
11
140.69999573752284
21
-18.120001095235381
31
0
0
LINE
5
117
100
AcDbEntity
8
0
100
AcDbLine
10
115.25000227514255
20
-16.184244373904054
30
0
11
115.25000099837783
21
-81.516117610456121
31
0
0
LWPOLYLINE
5
118
100
AcDbEntity
8
0
100
AcDbPolyline
90
4
70
1
43
0.0
10
112.25000099837783
20
-21.120001095235352
10
98.250000789761572
20
-21.120001095235352
10
98.250000789761572
20
-35.120001303851609
10
112.25000099837783
20
-35.120001303851609
0
LWPOLYLINE
5
119
100
AcDbEntity
8
0
100
AcDbPolyline
90
4
70
1
43
0.0
10
93.200000998377817
20
-32.740001303851614
10
93.200000998377817
20
-18.740001095235357
10
79.20000078976156
20
-18.740001095235357
10
79.20000078976156
20
-32.740001303851614
0
ARC
5
120
100
AcDbEntity
8
0
100
AcDbCircle
10
137.69999573752247
20
-98.956554869765114
30
0
40
3.0000000000003619
210
-0
220
0
230
1
100
AcDbArc
50
321.64322711473881
51
360
0
LINE
5
121
100
AcDbEntity
8
0
100
AcDbLine
10
129.01186196208667
20
-114.76962856481457
30
0
11
140.05248132528291
21
-100.81822389496311
31
0
0
ARC
5
122
100
AcDbEntity
8
0
100
AcDbCircle
10
135.44439475413935
20
-101.80682993656282
30
0
40
2.9999999999987379
210
-0
220
0
230
1
100
AcDbArc
50
-38.356772885264306
51
51.643227114735872
0
LINE
5
123
100
AcDbEntity
8
0
100
AcDbLine
10
115.62944465664522
20
-82.300279473042806
30
0
11
139.6585493670959
21
-101.31601337400036
31
0
0
ARC
5
124
100
AcDbEntity
8
0
100
AcDbCircle
10
116.25000099837794
20
-81.516117610456064
30
0
40
1.0000000000001208
210
0
220
0
230
1
100
AcDbArc
50
180
51
231.64322711473372
0
ARC
5
125
100
AcDbEntity
8
0
100
AcDbCircle
10
126.65937637432663
20
-112.9079595396167
30
0
40
2.9999999999999871
210
0
220
0
230
1
100
AcDbArc
50
228.06151019636897
51
321.64322711473596
0
LWPOLYLINE
5
126
100
AcDbEntity
8
0
100
AcDbPolyline
90
5
43
0.0
10
60.102412406936025
20
-92.52482683258474
10
78.25238457218984
20
-92.81501616121311
10
95.99695279323431
20
-97.34252030904199
10
111.67127719005876
20
-105.20012163027386
10
124.65437913310413
20
-115.1395477773277
0
LWPOLYLINE
5
127
100
AcDbEntity
8
0
100
AcDbPolyline
90
4
70
1
43
0.0
10
115.93346992417715
20
-104.22838245446255
10
126.81351354669999
20
-113.0388680604468
10
135.62399915268423
20
-102.15882443792383
10
124.74395553016137
20
-93.348338831939671
0
LWPOLYLINE
5
128
100
AcDbEntity
8
0
100
AcDbPolyline
90
4
70
1
43
0.0
10
110.88965423846003
20
-101.0050012139687
10
117.02685038495851
20
-88.421884378277312
10
104.44373354926705
20
-82.284688231778915
10
98.306537402768612
20
-94.867805067470314
0
LWPOLYLINE
5
129
100
AcDbEntity
8
0
100
AcDbPolyline
90
4
70
1
43
0.0
10
79.401835648125854
20
-89.790674256030513
10
93.043016758388589
20
-92.939989063773055
10
96.192331566131173
20
-79.298807953510362
10
82.551150455868424
20
-76.149493145767764
0
ARC
5
130
100
AcDbEntity
8
0
100
AcDbCircle
10
49.178605752403293
20
-82.000001922249879
30
0
40
3.0000000000000755
210
0
220
-0
230
1
100
AcDbArc
50
27.473452563240755
51
89.999999999999332
0
LINE
5
131
100
AcDbEntity
8
0
100
AcDbLine
10
51.840279806330258
20
-80.615989194471524
30
0
11
57.197475459828638
21
-90.918718632239589
31
0
0
ARC
5
132
100
AcDbEntity
8
0
100
AcDbCircle
10
59.859149513755568
20
-89.534705904461362
30
0
40
2.9999999999999942
210
0
220
0
230
1
100
AcDbArc
50
207.47345256323888
51
274.65108553084519
0
LWPOLYLINE
5
133
100
AcDbEntity
8
0
100
AcDbPolyline
90
4
70
1
43
0.0
10
60.150000789761542
20
-89.460001303851612
10
74.15000099837782
20
-89.460001303851612
10
74.15000099837782
20
-75.460001095235356
10
60.150000789761542
20
-75.460001095235356
0
LWPOLYLINE
5
134
100
AcDbEntity
8
0
100
AcDbPolyline
90
4
70
1
43
0.0
10
41.000001311302192
20
-18.740001095235339
10
41.000001311302192
20
-32.740001303851599
10
55.000001519918449
20
-32.740001303851599
10
55.000001519918449
20
-18.740001095235339
0
LWPOLYLINE
5
135
100
AcDbEntity
8
0
100
AcDbPolyline
90
4
70
1
43
0.0
10
22.050000789761555
20
-23.500001095235348
10
22.050000789761555
20
-37.500001303851604
10
36.050000998377811
20
-37.500001303851604
10
36.050000998377811
20
-23.500001095235348
0
LWPOLYLINE
5
136
100
AcDbEntity
8
0
100
AcDbPolyline
90
4
70
1
43
0.0
10
3.0000007897615433
20
-37.500001303851604
10
17.0000009983778
20
-37.500001303851604
10
17.0000009983778
20
-23.500001095235348
10
3.0000007897615433
20
-23.500001095235348
0
LWPOLYLINE
5
137
100
AcDbEntity
8
0
100
AcDbPolyline
90
4
70
1
43
0.0
10
17.0000009983778
20
-42.550001095235359
10
3.0000007897615433
20
-42.550001095235359
10
3.0000007897615433
20
-56.550001303851616
10
17.0000009983778
20
-56.550001303851616
0
LWPOLYLINE
5
138
100
AcDbEntity
8
0
100
AcDbPolyline
90
4
70
1
43
0.0
10
17.0000009983778
20
-61.600001095235356
10
3.0000007897615433
20
-61.600001095235356
10
3.0000007897615433
20
-75.600001303851613
10
17.0000009983778
20
-75.600001303851613
0
LWPOLYLINE
5
139
100
AcDbEntity
8
0
100
AcDbPolyline
90
4
70
1
43
0.0
10
22.050000789761555
20
-61.600001095235356
10
22.050000789761555
20
-75.600001303851613
10
36.050000998377811
20
-75.600001303851613
10
36.050000998377811
20
-61.600001095235356
0
LWPOLYLINE
5
140
100
AcDbEntity
8
0
100
AcDbPolyline
90
4
70
1
43
0.0
10
22.050000789761555
20
-42.550001095235359
10
22.050000789761555
20
-56.550001303851616
10
36.050000998377811
20
-56.550001303851616
10
36.050000998377811
20
-42.550001095235359
0
LWPOLYLINE
5
141
100
AcDbEntity
8
0
100
AcDbPolyline
90
4
70
1
43
0.0
10
41.100000789761566
20
-37.790001095235354
10
41.100000789761566
20
-51.790001303851611
10
55.100000998377823
20
-51.790001303851611
10
55.100000998377823
20
-37.790001095235354
0
LWPOLYLINE
5
142
100
AcDbEntity
8
0
100
AcDbPolyline
90
4
70
1
43
0.0
10
55.100000998377823
20
-56.840001095235344
10
41.100000789761566
20
-56.840001095235344
10
41.100000789761566
20
-70.840001303851608
10
55.100000998377823
20
-70.840001303851608
0
LWPOLYLINE
5
143
100
AcDbEntity
8
0
100
AcDbPolyline
90
4
70
1
43
0.0
10
60.150000789761542
20
-35.410001095235359
10
60.150000789761542
20
-49.410001303851615
10
74.15000099837782
20
-49.410001303851615
10
74.15000099837782
20
-35.410001095235359
0
LWPOLYLINE
5
144
100
AcDbEntity
8
0
100
AcDbPolyline
90
4
70
1
43
0.0
10
74.15000099837782
20
-54.460001095235349
10
60.150000789761542
20
-54.460001095235349
10
60.150000789761542
20
-68.460001303851612
10
74.15000099837782
20
-68.460001303851612
0
LWPOLYLINE
5
145
100
AcDbEntity
8
0
100
AcDbPolyline
90
4
70
1
43
0.0
10
79.20000078976156
20
-37.790001095235368
10
79.20000078976156
20
-51.790001303851625
10
93.200000998377817
20
-51.790001303851625
10
93.200000998377817
20
-37.790001095235368
0
LWPOLYLINE
5
146
100
AcDbEntity
8
0
100
AcDbPolyline
90
4
70
1
43
0.0
10
79.20000078976156
20
-56.840001095235365
10
79.20000078976156
20
-70.840001303851622
10
93.200000998377817
20
-70.840001303851622
10
93.200000998377817
20
-56.840001095235365
0
LWPOLYLINE
5
147
100
AcDbEntity
8
0
100
AcDbPolyline
90
4
70
1
43
0.0
10
98.250000789761572
20
-59.220001095235361
10
98.250000789761572
20
-73.220001303851618
10
112.25000099837783
20
-73.220001303851618
10
112.25000099837783
20
-59.220001095235361
0
LWPOLYLINE
5
148
100
AcDbEntity
8
0
100
AcDbPolyline
90
4
70
1
43
0.0
10
98.250000789761572
20
-40.170001095235364
10
98.250000789761572
20
-54.17000130385162
10
112.25000099837783
20
-54.17000130385162
10
112.25000099837783
20
-40.170001095235364
0
LINE
5
149
100
AcDbEntity
8
0
100
AcDbLine
10
7.4505805858215979e-07
20
-23.096039853785001
30
0
11
7.4505805969238281e-07
21
-76.000001922249794
31
0
0
LINE
5
150
100
AcDbEntity
8
0
100
AcDbLine
10
140.69999573752284
20
-98.956554869765213
30
0
11
140.69999573752284
21
-20.902063915253102
31
0
0
LWPOLYLINE
5
151
100
AcDbEntity
8
0
100
AcDbPolyline
90
9
43
0.0
10
2.5703268247780575
20
-20.126969237879873
10
25.576793085941347
20
-16.90556994446076
10
43.637277112747604
20
-14.638846416135753
10
57.179315473945685
20
-13.358017235989498
10
67.91356715655053
20
-13.022314765446705
10
79.05177108721058
20
-13.473983327437226
10
93.64523048029245
20
-14.520825546790512
10
113.1656687885205
20
-16.024117870038108
10
137.9260059421383
20
-17.910589464850812
0
ARC
5
152
100
AcDbEntity
8
0
100
AcDbCircle
10
3.0000007450580584
20
-23.096039853785001
30
0
40
3
210
0
220
0
230
1
100
AcDbArc
50
98.234485520124366
51
180
0
ARC
5
153
100
AcDbEntity
8
0
100
AcDbCircle
10
137.69999573752284
20
-20.902063915253098
30
0
40
3.0000000000000071
210
-0
220
0
230
1
100
AcDbArc
50
0
51
85.679429469352613
0
ENDSEC
0
SECTION
2
OBJECTS
0
DICTIONARY
5
C
100
AcDbDictionary
3
ACAD_GROUP
350
D
3
ACAD_MLINESTYLE
350
17
0
DICTIONARY
5
D
100
AcDbDictionary
0
DICTIONARY
5
1A
330
C
100
AcDbDictionary
0
DICTIONARY
5
17
100
AcDbDictionary
0
ENDSEC
0
EOF
