999
"DXF R12 Output" (www.mydxf.blogspot.com)
 0 
SECTION
 2 
HEADER
 9 
$ACADVER
 1 
AC1009
 9 
$EXTMIN
 10 
 0 
 20 
 0 
 9 
$EXTMAX
 10 
 8.5 
 20 
 11 
 0 
ENDSEC
 0 
SECTION
 2 
ENTITIES
0
LINE
8
Layer 1
10
4.709450
20
42.133300
11
4.709450
21
46.665040
0
LINE
8
Layer 1
10
4.709450
20
46.665040
11
9.816380
21
46.665040
0
LINE
8
Layer 1
10
9.816380
20
46.665040
11
9.816380
21
67.127600
0
LINE
8
Layer 1
10
9.816380
20
67.127600
11
14.365600
21
67.127600
0
LINE
8
Layer 1
10
14.365600
20
67.127600
11
14.365600
21
46.665100
0
LINE
8
Layer 1
10
14.365600
20
46.665100
11
19.489960
21
46.665100
0
LINE
8
Layer 1
10
19.489960
20
46.665100
11
19.489960
21
42.133360
0
LINE
8
Layer 1
10
19.489960
20
42.133360
11
4.709450
21
42.133300
0
LINE
8
Layer 1
10
6.400140
20
43.823990
11
17.781800
21
43.823990
0
LINE
8
Layer 1
10
17.781800
20
43.823990
11
17.781800
21
44.974400
0
LINE
8
Layer 1
10
17.781800
20
44.974400
11
12.657400
21
44.974400
0
LINE
8
Layer 1
10
12.657400
20
44.974400
11
12.657400
21
65.437000
0
LINE
8
Layer 1
10
12.657400
20
65.437000
11
11.524500
21
65.437000
0
LINE
8
Layer 1
10
11.524500
20
65.437000
11
11.524500
21
44.974400
0
LINE
8
Layer 1
10
11.524500
20
44.974400
11
6.400140
21
44.974400
0
LINE
8
Layer 1
10
6.400140
20
44.974400
11
6.400140
21
43.823990
0
LINE
8
Layer 1
10
34.863000
20
59.737400
11
34.758421
21
60.871425
0
LINE
8
Layer 1
10
34.758421
20
60.871425
11
34.444685
21
61.920480
0
LINE
8
Layer 1
10
34.444685
20
61.920480
11
33.921791
21
62.884565
0
LINE
8
Layer 1
10
33.921791
20
62.884565
11
33.189740
21
63.763680
0
LINE
8
Layer 1
10
33.189740
20
63.763680
11
32.318251
21
64.488106
0
LINE
8
Layer 1
10
32.318251
20
64.488106
11
31.359613
21
65.005552
0
LINE
8
Layer 1
10
31.359613
20
65.005552
11
30.313826
21
65.316021
0
LINE
8
Layer 1
10
30.313826
20
65.316021
11
29.180890
21
65.419510
0
LINE
8
Layer 1
10
29.180890
20
65.419510
11
28.046865
21
65.316021
0
LINE
8
Layer 1
10
28.046865
20
65.316021
11
26.997810
21
65.005552
0
LINE
8
Layer 1
10
26.997810
20
65.005552
11
26.033725
21
64.488106
0
LINE
8
Layer 1
10
26.033725
20
64.488106
11
25.154610
21
63.763680
0
LINE
8
Layer 1
10
25.154610
20
63.763680
11
24.430184
21
62.884565
0
LINE
8
Layer 1
10
24.430184
20
62.884565
11
23.912738
21
61.920480
0
LINE
8
Layer 1
10
23.912738
20
61.920480
11
23.602269
21
60.871425
0
LINE
8
Layer 1
10
23.602269
20
60.871425
11
23.498780
21
59.737400
0
LINE
8
Layer 1
10
23.498780
20
59.737400
11
23.498780
21
49.506100
0
LINE
8
Layer 1
10
23.498780
20
49.506100
11
23.602269
21
48.379701
0
LINE
8
Layer 1
10
23.602269
20
48.379701
11
23.912738
21
47.336093
0
LINE
8
Layer 1
10
23.912738
20
47.336093
11
24.430184
21
46.375276
0
LINE
8
Layer 1
10
24.430184
20
46.375276
11
25.154610
21
45.497250
0
LINE
8
Layer 1
10
25.154610
20
45.497250
11
26.033725
21
44.765199
0
LINE
8
Layer 1
10
26.033725
20
44.765199
11
26.997810
21
44.242305
0
LINE
8
Layer 1
10
26.997810
20
44.242305
11
28.046865
21
43.928569
0
LINE
8
Layer 1
10
28.046865
20
43.928569
11
29.180890
21
43.823990
0
LINE
8
Layer 1
10
29.180890
20
43.823990
11
30.313826
21
43.928569
0
LINE
8
Layer 1
10
30.313826
20
43.928569
11
31.359613
21
44.242305
0
LINE
8
Layer 1
10
31.359613
20
44.242305
11
32.318251
21
44.765199
0
LINE
8
Layer 1
10
32.318251
20
44.765199
11
33.189740
21
45.497250
0
LINE
8
Layer 1
10
33.189740
20
45.497250
11
33.921791
21
46.375276
0
LINE
8
Layer 1
10
33.921791
20
46.375276
11
34.444685
21
47.336092
0
LINE
8
Layer 1
10
34.444685
20
47.336092
11
34.758421
21
48.379701
0
LINE
8
Layer 1
10
34.758421
20
48.379701
11
34.863000
21
49.506100
0
LINE
8
Layer 1
10
34.863000
20
49.506100
11
34.863000
21
59.737400
0
LINE
8
Layer 1
10
29.180890
20
42.133300
11
27.710252
21
42.268381
0
LINE
8
Layer 1
10
27.710252
20
42.268381
11
26.348550
21
42.673623
0
LINE
8
Layer 1
10
26.348550
20
42.673623
11
25.095782
21
43.349026
0
LINE
8
Layer 1
10
25.095782
20
43.349026
11
23.951950
21
44.294590
0
LINE
8
Layer 1
10
23.951950
20
44.294590
11
23.006386
21
45.430793
0
LINE
8
Layer 1
10
23.006386
20
45.430793
11
22.330982
21
46.678113
0
LINE
8
Layer 1
10
22.330982
20
46.678113
11
21.925741
21
48.036548
0
LINE
8
Layer 1
10
21.925741
20
48.036548
11
21.790660
21
49.506100
0
LINE
8
Layer 1
10
21.790660
20
49.506100
11
21.790660
21
59.737400
0
LINE
8
Layer 1
10
21.790660
20
59.737400
11
21.925741
21
61.208037
0
LINE
8
Layer 1
10
21.925741
20
61.208037
11
22.330982
21
62.569740
0
LINE
8
Layer 1
10
22.330982
20
62.569740
11
23.006386
21
63.822507
0
LINE
8
Layer 1
10
23.006386
20
63.822507
11
23.951950
21
64.966340
0
LINE
8
Layer 1
10
23.951950
20
64.966340
11
25.095779
21
65.911904
0
LINE
8
Layer 1
10
25.095779
20
65.911904
11
26.348545
21
66.587307
0
LINE
8
Layer 1
10
26.348545
20
66.587307
11
27.710249
21
66.992549
0
LINE
8
Layer 1
10
27.710249
20
66.992549
11
29.180890
21
67.127630
0
LINE
8
Layer 1
10
29.180890
20
67.127630
11
30.650438
21
66.992549
0
LINE
8
Layer 1
10
30.650438
20
66.992549
11
32.008872
21
66.587307
0
LINE
8
Layer 1
10
32.008872
20
66.587307
11
33.256193
21
65.911904
0
LINE
8
Layer 1
10
33.256193
20
65.911904
11
34.392400
21
64.966340
0
LINE
8
Layer 1
10
34.392400
20
64.966340
11
35.345590
21
63.822511
0
LINE
8
Layer 1
10
35.345590
20
63.822511
11
36.026440
21
62.569745
0
LINE
8
Layer 1
10
36.026440
20
62.569745
11
36.434950
21
61.208041
0
LINE
8
Layer 1
10
36.434950
20
61.208041
11
36.571120
21
59.737400
0
LINE
8
Layer 1
10
36.571120
20
59.737400
11
36.571120
21
49.506100
0
LINE
8
Layer 1
10
36.571120
20
49.506100
11
36.434950
21
48.036552
0
LINE
8
Layer 1
10
36.434950
20
48.036552
11
36.026440
21
46.678117
0
LINE
8
Layer 1
10
36.026440
20
46.678117
11
35.345590
21
45.430797
0
LINE
8
Layer 1
10
35.345590
20
45.430797
11
34.392400
21
44.294590
0
LINE
8
Layer 1
10
34.392400
20
44.294590
11
33.256197
21
43.349026
0
LINE
8
Layer 1
10
33.256197
20
43.349026
11
32.008877
21
42.673623
0
LINE
8
Layer 1
10
32.008877
20
42.673623
11
30.650442
21
42.268381
0
LINE
8
Layer 1
10
30.650442
20
42.268381
11
29.180890
21
42.133300
0
LINE
8
Layer 1
10
29.180890
20
42.133300
11
29.180890
21
42.133300
0
LINE
8
Layer 1
10
32.021940
20
59.737400
11
31.812783
21
60.831123
0
LINE
8
Layer 1
10
31.812783
20
60.831123
11
31.185310
21
61.741830
0
LINE
8
Layer 1
10
31.185310
20
61.741830
11
30.265891
21
62.369302
0
LINE
8
Layer 1
10
30.265891
20
62.369302
11
29.180890
21
62.578459
0
LINE
8
Layer 1
10
29.180890
20
62.578459
11
28.087170
21
62.369302
0
LINE
8
Layer 1
10
28.087170
20
62.369302
11
27.176470
21
61.741830
0
LINE
8
Layer 1
10
27.176470
20
61.741830
11
26.548997
21
60.831123
0
LINE
8
Layer 1
10
26.548997
20
60.831123
11
26.339840
21
59.737400
0
LINE
8
Layer 1
10
26.339840
20
59.737400
11
26.339840
21
49.506100
0
LINE
8
Layer 1
10
26.339840
20
49.506100
11
26.548997
21
48.421095
0
LINE
8
Layer 1
10
26.548997
20
48.421095
11
27.176470
21
47.501680
0
LINE
8
Layer 1
10
27.176470
20
47.501680
11
28.087174
21
46.874207
0
LINE
8
Layer 1
10
28.087174
20
46.874207
11
29.180890
21
46.665050
0
LINE
8
Layer 1
10
29.180890
20
46.665050
11
30.265895
21
46.874207
0
LINE
8
Layer 1
10
30.265895
20
46.874207
11
31.185310
21
47.501680
0
LINE
8
Layer 1
10
31.185310
20
47.501680
11
31.812783
21
48.421099
0
LINE
8
Layer 1
10
31.812783
20
48.421099
11
32.021940
21
49.506100
0
LINE
8
Layer 1
10
32.021940
20
49.506100
11
32.021940
21
59.737400
0
LINE
8
Layer 1
10
29.180900
20
44.974400
11
28.273461
21
45.057191
0
LINE
8
Layer 1
10
28.273461
20
45.057191
11
27.433563
21
45.305565
0
LINE
8
Layer 1
10
27.433563
20
45.305565
11
26.661206
21
45.719521
0
LINE
8
Layer 1
10
26.661206
20
45.719521
11
25.956390
21
46.299060
0
LINE
8
Layer 1
10
25.956390
20
46.299060
11
25.376851
21
47.002786
0
LINE
8
Layer 1
10
25.376851
20
47.002786
11
24.962895
21
47.771875
0
LINE
8
Layer 1
10
24.962895
20
47.771875
11
24.714521
21
48.606326
0
LINE
8
Layer 1
10
24.714521
20
48.606326
11
24.631730
21
49.506140
0
LINE
8
Layer 1
10
24.631730
20
49.506140
11
24.631730
21
59.737440
0
LINE
8
Layer 1
10
24.631730
20
59.737440
11
24.714521
21
60.644879
0
LINE
8
Layer 1
10
24.714521
20
60.644879
11
24.962895
21
61.484777
0
LINE
8
Layer 1
10
24.962895
20
61.484777
11
25.376851
21
62.257134
0
LINE
8
Layer 1
10
25.376851
20
62.257134
11
25.956390
21
62.961950
0
LINE
8
Layer 1
10
25.956390
20
62.961950
11
26.661206
21
63.541489
0
LINE
8
Layer 1
10
26.661206
20
63.541489
11
27.433563
21
63.955445
0
LINE
8
Layer 1
10
27.433563
20
63.955445
11
28.273461
21
64.203819
0
LINE
8
Layer 1
10
28.273461
20
64.203819
11
29.180900
21
64.286610
0
LINE
8
Layer 1
10
29.180900
20
64.286610
11
30.087250
21
64.203819
0
LINE
8
Layer 1
10
30.087250
20
64.203819
11
30.923880
21
63.955445
0
LINE
8
Layer 1
10
30.923880
20
63.955445
11
31.690790
21
63.541489
0
LINE
8
Layer 1
10
31.690790
20
63.541489
11
32.387980
21
62.961950
0
LINE
8
Layer 1
10
32.387980
20
62.961950
11
32.975144
21
62.257134
0
LINE
8
Layer 1
10
32.975144
20
62.257134
11
33.394548
21
61.484777
0
LINE
8
Layer 1
10
33.394548
20
61.484777
11
33.646189
21
60.644879
0
LINE
8
Layer 1
10
33.646189
20
60.644879
11
33.730070
21
59.737440
0
LINE
8
Layer 1
10
33.730070
20
59.737440
11
33.730070
21
49.506100
0
LINE
8
Layer 1
10
33.730070
20
49.506100
11
33.646189
21
48.606286
0
LINE
8
Layer 1
10
33.646189
20
48.606286
11
33.394548
21
47.771835
0
LINE
8
Layer 1
10
33.394548
20
47.771835
11
32.975144
21
47.002746
0
LINE
8
Layer 1
10
32.975144
20
47.002746
11
32.387980
21
46.299020
0
LINE
8
Layer 1
10
32.387980
20
46.299020
11
31.690790
21
45.719481
0
LINE
8
Layer 1
10
31.690790
20
45.719481
11
30.923880
21
45.305525
0
LINE
8
Layer 1
10
30.923880
20
45.305525
11
30.087250
21
45.057151
0
LINE
8
Layer 1
10
30.087250
20
45.057151
11
29.180900
21
44.974360
0
LINE
8
Layer 1
10
29.180900
20
44.974360
11
29.180900
21
44.974400
0
LINE
8
Layer 1
10
50.218600
20
50.081300
11
50.009443
21
51.166305
0
LINE
8
Layer 1
10
50.009443
20
51.166305
11
49.381970
21
52.085720
0
LINE
8
Layer 1
10
49.381970
20
52.085720
11
48.462550
21
52.713192
0
LINE
8
Layer 1
10
48.462550
20
52.713192
11
47.377550
21
52.922350
0
LINE
8
Layer 1
10
47.377550
20
52.922350
11
44.257620
21
52.922350
0
LINE
8
Layer 1
10
44.257620
20
52.922350
11
44.257620
21
46.665060
0
LINE
8
Layer 1
10
44.257620
20
46.665060
11
47.377550
21
46.665060
0
LINE
8
Layer 1
10
47.377550
20
46.665060
11
48.462550
21
46.874218
0
LINE
8
Layer 1
10
48.462550
20
46.874218
11
49.381970
21
47.501690
0
LINE
8
Layer 1
10
49.381970
20
47.501690
11
50.009443
21
48.421110
0
LINE
8
Layer 1
10
50.009443
20
48.421110
11
50.218600
21
49.506110
0
LINE
8
Layer 1
10
50.218600
20
49.506110
11
50.218600
21
50.081300
0
LINE
8
Layer 1
10
51.926720
20
49.506117
11
51.842839
21
48.606303
0
LINE
8
Layer 1
10
51.842839
20
48.606303
11
51.591197
21
47.771852
0
LINE
8
Layer 1
10
51.591197
20
47.771852
11
51.171794
21
47.002763
0
LINE
8
Layer 1
10
51.171794
20
47.002763
11
50.584630
21
46.299037
0
LINE
8
Layer 1
10
50.584630
20
46.299037
11
49.887440
21
45.719498
0
LINE
8
Layer 1
10
49.887440
20
45.719498
11
49.120530
21
45.305542
0
LINE
8
Layer 1
10
49.120530
20
45.305542
11
48.283900
21
45.057168
0
LINE
8
Layer 1
10
48.283900
20
45.057168
11
47.377550
21
44.974377
0
LINE
8
Layer 1
10
47.377550
20
44.974377
11
42.549500
21
44.974377
0
LINE
8
Layer 1
10
42.549500
20
44.974377
11
42.549500
21
54.630477
0
LINE
8
Layer 1
10
42.549500
20
54.630477
11
47.377550
21
54.630477
0
LINE
8
Layer 1
10
47.377550
20
54.630477
11
48.283900
21
54.546596
0
LINE
8
Layer 1
10
48.283900
20
54.546596
11
49.120530
21
54.294954
0
LINE
8
Layer 1
10
49.120530
20
54.294954
11
49.887440
21
53.875551
0
LINE
8
Layer 1
10
49.887440
20
53.875551
11
50.584630
21
53.288387
0
LINE
8
Layer 1
10
50.584630
20
53.288387
11
51.171794
21
52.591197
0
LINE
8
Layer 1
10
51.171794
20
52.591197
11
51.591197
21
51.824287
0
LINE
8
Layer 1
10
51.591197
20
51.824287
11
51.842839
21
50.987657
0
LINE
8
Layer 1
10
51.842839
20
50.987657
11
51.926720
21
50.081307
0
LINE
8
Layer 1
10
51.926720
20
50.081307
11
51.926720
21
49.506117
0
LINE
8
Layer 1
10
47.307830
20
55.763407
11
42.549500
21
55.763407
0
LINE
8
Layer 1
10
42.549500
20
55.763407
11
42.549500
21
65.436937
0
LINE
8
Layer 1
10
42.549500
20
65.436937
11
41.416600
21
65.436937
0
LINE
8
Layer 1
10
41.416600
20
65.436937
11
41.416600
21
43.824000
0
LINE
8
Layer 1
10
41.416600
20
43.824000
11
47.377590
21
43.824000
0
LINE
8
Layer 1
10
47.377590
20
43.824000
11
48.510526
21
43.928579
0
LINE
8
Layer 1
10
48.510526
20
43.928579
11
49.556313
21
44.242315
0
LINE
8
Layer 1
10
49.556313
20
44.242315
11
50.514951
21
44.765209
0
LINE
8
Layer 1
10
50.514951
20
44.765209
11
51.386440
21
45.497260
0
LINE
8
Layer 1
10
51.386440
20
45.497260
11
52.118491
21
46.375286
0
LINE
8
Layer 1
10
52.118491
20
46.375286
11
52.641385
21
47.336102
0
LINE
8
Layer 1
10
52.641385
20
47.336102
11
52.955121
21
48.379711
0
LINE
8
Layer 1
10
52.955121
20
48.379711
11
53.059700
21
49.506110
0
LINE
8
Layer 1
10
53.059700
20
49.506110
11
53.059700
21
50.081293
0
LINE
8
Layer 1
10
53.059700
20
50.081293
11
52.977998
21
51.071525
0
LINE
8
Layer 1
10
52.977998
20
51.071525
11
52.732893
21
52.002931
0
LINE
8
Layer 1
10
52.732893
20
52.002931
11
52.324383
21
52.875510
0
LINE
8
Layer 1
10
52.324383
20
52.875510
11
51.752470
21
53.689263
0
LINE
8
Layer 1
10
51.752470
20
53.689263
11
51.072706
21
54.399527
0
LINE
8
Layer 1
10
51.072706
20
54.399527
11
50.305795
21
54.961638
0
LINE
8
Layer 1
10
50.305795
20
54.961638
11
49.451736
21
55.375597
0
LINE
8
Layer 1
10
49.451736
20
55.375597
11
48.510530
21
55.641403
0
LINE
8
Layer 1
10
48.510530
20
55.641403
11
53.129420
21
65.436943
0
LINE
8
Layer 1
10
53.129420
20
65.436943
11
51.857040
21
65.436943
0
LINE
8
Layer 1
10
51.857040
20
65.436943
11
47.307830
21
55.763407
0
LINE
8
Layer 1
10
50.846080
20
56.600037
11
52.445262
21
55.454028
0
LINE
8
Layer 1
10
52.445262
20
55.454028
11
53.687130
21
53.933277
0
LINE
8
Layer 1
10
53.687130
20
53.933277
11
54.497618
21
52.081362
0
LINE
8
Layer 1
10
54.497618
20
52.081362
11
54.767780
21
50.081297
0
LINE
8
Layer 1
10
54.767780
20
50.081297
11
54.767780
21
49.506114
0
LINE
8
Layer 1
10
54.767780
20
49.506114
11
54.632699
21
48.036566
0
LINE
8
Layer 1
10
54.632699
20
48.036566
11
54.227457
21
46.678131
0
LINE
8
Layer 1
10
54.227457
20
46.678131
11
53.552054
21
45.430811
0
LINE
8
Layer 1
10
53.552054
20
45.430811
11
52.606490
21
44.294604
0
LINE
8
Layer 1
10
52.606490
20
44.294604
11
51.462662
21
43.349040
0
LINE
8
Layer 1
10
51.462662
20
43.349040
11
50.209897
21
42.673636
0
LINE
8
Layer 1
10
50.209897
20
42.673636
11
48.848197
21
42.268395
0
LINE
8
Layer 1
10
48.848197
20
42.268395
11
47.377560
21
42.133314
0
LINE
8
Layer 1
10
47.377560
20
42.133314
11
39.708450
21
42.133314
0
LINE
8
Layer 1
10
39.708450
20
42.133314
11
39.708450
21
67.127614
0
LINE
8
Layer 1
10
39.708450
20
67.127614
11
44.257620
21
67.127614
0
LINE
8
Layer 1
10
44.257620
20
67.127614
11
44.257620
21
57.471514
0
LINE
8
Layer 1
10
44.257620
20
57.471514
11
46.244620
21
57.471514
0
LINE
8
Layer 1
10
46.244620
20
57.471514
11
50.776360
21
67.127614
0
LINE
8
Layer 1
10
50.776360
20
67.127614
11
55.813570
21
67.127614
0
LINE
8
Layer 1
10
55.813570
20
67.127614
11
50.846080
21
56.600037
0
LINE
8
Layer 1
10
69.182200
20
42.133300
11
69.182200
21
55.571700
0
LINE
8
Layer 1
10
69.182200
20
55.571700
11
63.674400
21
42.133300
0
LINE
8
Layer 1
10
63.674400
20
42.133300
11
58.950900
21
42.133300
0
LINE
8
Layer 1
10
58.950900
20
42.133300
11
58.950900
21
67.127600
0
LINE
8
Layer 1
10
58.950900
20
67.127600
11
63.500100
21
67.127600
0
LINE
8
Layer 1
10
63.500100
20
67.127600
11
63.500100
21
53.689300
0
LINE
8
Layer 1
10
63.500100
20
53.689300
11
68.990480
21
67.127700
0
LINE
8
Layer 1
10
68.990480
20
67.127700
11
73.731380
21
67.127700
0
LINE
8
Layer 1
10
73.731380
20
67.127700
11
73.731380
21
42.133300
0
LINE
8
Layer 1
10
73.731380
20
42.133300
11
69.182200
21
42.133300
0
LINE
8
Layer 1
10
70.890320
20
43.823990
11
72.023260
21
43.823990
0
LINE
8
Layer 1
10
72.023260
20
43.823990
11
72.023260
21
65.437000
0
LINE
8
Layer 1
10
72.023260
20
65.437000
11
70.140900
21
65.437000
0
LINE
8
Layer 1
10
70.140900
20
65.437000
11
61.792000
21
45.009200
0
LINE
8
Layer 1
10
61.792000
20
45.009200
11
61.792000
21
65.437000
0
LINE
8
Layer 1
10
61.792000
20
65.437000
11
60.659100
21
65.437000
0
LINE
8
Layer 1
10
60.659100
20
65.437000
11
60.659100
21
43.824000
0
LINE
8
Layer 1
10
60.659100
20
43.824000
11
62.524090
21
43.824000
0
LINE
8
Layer 1
10
62.524090
20
43.824000
11
70.890390
21
64.234300
0
LINE
8
Layer 1
10
70.890390
20
64.234300
11
70.890320
21
43.823990
0
LINE
8
Layer 1
10
81.417900
20
46.665100
11
84.537830
21
46.665100
0
LINE
8
Layer 1
10
84.537830
20
46.665100
11
85.409319
21
46.835041
0
LINE
8
Layer 1
10
85.409319
20
46.835041
11
86.141370
21
47.344862
0
LINE
8
Layer 1
10
86.141370
20
47.344862
11
86.638119
21
48.076913
0
LINE
8
Layer 1
10
86.638119
20
48.076913
11
86.803702
21
48.948402
0
LINE
8
Layer 1
10
86.803702
20
48.948402
11
86.803702
21
49.453866
0
LINE
8
Layer 1
10
86.803702
20
49.453866
11
86.638119
21
50.325355
0
LINE
8
Layer 1
10
86.638119
20
50.325355
11
86.141370
21
51.057406
0
LINE
8
Layer 1
10
86.141370
20
51.057406
11
85.409319
21
51.554155
0
LINE
8
Layer 1
10
85.409319
20
51.554155
11
84.537830
21
51.719738
0
LINE
8
Layer 1
10
84.537830
20
51.719738
11
81.417900
21
51.719738
0
LINE
8
Layer 1
10
81.417900
20
51.719738
11
81.417900
21
46.665100
0
LINE
8
Layer 1
10
88.511820
20
48.948400
11
88.438833
21
48.152076
0
LINE
8
Layer 1
10
88.438833
20
48.152076
11
88.219870
21
47.418935
0
LINE
8
Layer 1
10
88.219870
20
47.418935
11
87.854932
21
46.748976
0
LINE
8
Layer 1
10
87.854932
20
46.748976
11
87.344020
21
46.142200
0
LINE
8
Layer 1
10
87.344020
20
46.142200
11
86.730707
21
45.631292
0
LINE
8
Layer 1
10
86.730707
20
45.631292
11
86.058570
21
45.266358
0
LINE
8
Layer 1
10
86.058570
20
45.266358
11
85.327607
21
45.047397
0
LINE
8
Layer 1
10
85.327607
20
45.047397
11
84.537820
21
44.974410
0
LINE
8
Layer 1
10
84.537820
20
44.974410
11
79.709770
21
44.974410
0
LINE
8
Layer 1
10
79.709770
20
44.974410
11
79.709770
21
53.427860
0
LINE
8
Layer 1
10
79.709770
20
53.427860
11
84.537820
21
53.427860
0
LINE
8
Layer 1
10
84.537820
20
53.427860
11
85.327607
21
53.354873
0
LINE
8
Layer 1
10
85.327607
20
53.354873
11
86.058570
21
53.135910
0
LINE
8
Layer 1
10
86.058570
20
53.135910
11
86.730707
21
52.770973
0
LINE
8
Layer 1
10
86.730707
20
52.770973
11
87.344020
21
52.260060
0
LINE
8
Layer 1
10
87.344020
20
52.260060
11
87.854932
21
51.646748
0
LINE
8
Layer 1
10
87.854932
20
51.646748
11
88.219870
21
50.974610
0
LINE
8
Layer 1
10
88.219870
20
50.974610
11
88.438833
21
50.243648
0
LINE
8
Layer 1
10
88.438833
20
50.243648
11
88.511820
21
49.453860
0
LINE
8
Layer 1
10
88.511820
20
49.453860
11
88.511820
21
48.948400
0
LINE
8
Layer 1
10
90.219940
20
59.737400
11
90.115361
21
60.871425
0
LINE
8
Layer 1
10
90.115361
20
60.871425
11
89.801625
21
61.920480
0
LINE
8
Layer 1
10
89.801625
20
61.920480
11
89.278731
21
62.884565
0
LINE
8
Layer 1
10
89.278731
20
62.884565
11
88.546680
21
63.763680
0
LINE
8
Layer 1
10
88.546680
20
63.763680
11
87.675191
21
64.488106
0
LINE
8
Layer 1
10
87.675191
20
64.488106
11
86.716553
21
65.005552
0
LINE
8
Layer 1
10
86.716553
20
65.005552
11
85.670766
21
65.316021
0
LINE
8
Layer 1
10
85.670766
20
65.316021
11
84.537830
21
65.419510
0
LINE
8
Layer 1
10
84.537830
20
65.419510
11
78.576900
21
65.419510
0
LINE
8
Layer 1
10
78.576900
20
65.419510
11
78.576900
21
43.824000
0
LINE
8
Layer 1
10
78.576900
20
43.824000
11
84.537890
21
43.824000
0
LINE
8
Layer 1
10
84.537890
20
43.824000
11
85.554263
21
43.918774
0
LINE
8
Layer 1
10
85.554263
20
43.918774
11
86.494382
21
44.203097
0
LINE
8
Layer 1
10
86.494382
20
44.203097
11
87.358248
21
44.676969
0
LINE
8
Layer 1
10
87.358248
20
44.676969
11
88.145860
21
45.340390
0
LINE
8
Layer 1
10
88.145860
20
45.340390
11
88.801655
21
46.127998
0
LINE
8
Layer 1
10
88.801655
20
46.127998
11
89.270080
21
46.991862
0
LINE
8
Layer 1
10
89.270080
20
46.991862
11
89.551135
21
47.931983
0
LINE
8
Layer 1
10
89.551135
20
47.931983
11
89.644820
21
48.948360
0
LINE
8
Layer 1
10
89.644820
20
48.948360
11
89.644820
21
49.453824
0
LINE
8
Layer 1
10
89.644820
20
49.453824
11
89.453092
21
50.856922
0
LINE
8
Layer 1
10
89.453092
20
50.856922
11
88.877909
21
52.138014
0
LINE
8
Layer 1
10
88.877909
20
52.138014
11
88.002063
21
53.205592
0
LINE
8
Layer 1
10
88.002063
20
53.205592
11
86.873489
21
54.003004
0
LINE
8
Layer 1
10
86.873489
20
54.003004
11
88.228654
21
54.857062
0
LINE
8
Layer 1
10
88.228654
20
54.857062
11
89.296229
21
56.059714
0
LINE
8
Layer 1
10
89.296229
20
56.059714
11
89.989063
21
57.545602
0
LINE
8
Layer 1
10
89.989063
20
57.545602
11
90.220008
21
59.179644
0
LINE
8
Layer 1
10
90.220008
20
59.179644
11
90.219940
21
59.737400
0
LINE
8
Layer 1
10
89.697100
20
53.898400
11
90.421526
21
52.901633
0
LINE
8
Layer 1
10
90.421526
20
52.901633
11
90.938973
21
51.828612
0
LINE
8
Layer 1
10
90.938973
20
51.828612
11
91.249441
21
50.679338
0
LINE
8
Layer 1
10
91.249441
20
50.679338
11
91.352930
21
49.453810
0
LINE
8
Layer 1
10
91.352930
20
49.453810
11
91.352930
21
48.948346
0
LINE
8
Layer 1
10
91.352930
20
48.948346
11
91.228742
21
47.587735
0
LINE
8
Layer 1
10
91.228742
20
47.587735
11
90.856180
21
46.329523
0
LINE
8
Layer 1
10
90.856180
20
46.329523
11
90.235243
21
45.173710
0
LINE
8
Layer 1
10
90.235243
20
45.173710
11
89.365930
21
44.120296
0
LINE
8
Layer 1
10
89.365930
20
44.120296
11
88.312519
21
43.250984
0
LINE
8
Layer 1
10
88.312519
20
43.250984
11
87.156708
21
42.630046
0
LINE
8
Layer 1
10
87.156708
20
42.630046
11
85.898494
21
42.257483
0
LINE
8
Layer 1
10
85.898494
20
42.257483
11
84.537880
21
42.133296
0
LINE
8
Layer 1
10
84.537880
20
42.133296
11
76.868800
21
42.133296
0
LINE
8
Layer 1
10
76.868800
20
42.133296
11
76.868800
21
67.127596
0
LINE
8
Layer 1
10
76.868800
20
67.127596
11
84.537910
21
67.127596
0
LINE
8
Layer 1
10
84.537910
20
67.127596
11
86.008547
21
66.992515
0
LINE
8
Layer 1
10
86.008547
20
66.992515
11
87.370250
21
66.587273
0
LINE
8
Layer 1
10
87.370250
20
66.587273
11
88.623017
21
65.911870
0
LINE
8
Layer 1
10
88.623017
20
65.911870
11
89.766850
21
64.966306
0
LINE
8
Layer 1
10
89.766850
20
64.966306
11
90.712414
21
63.822477
0
LINE
8
Layer 1
10
90.712414
20
63.822477
11
91.387817
21
62.569711
0
LINE
8
Layer 1
10
91.387817
20
62.569711
11
91.793059
21
61.208007
0
LINE
8
Layer 1
10
91.793059
20
61.208007
11
91.928140
21
59.737366
0
LINE
8
Layer 1
10
91.928140
20
59.737366
11
91.928140
21
59.179613
0
LINE
8
Layer 1
10
91.928140
20
59.179613
11
91.788702
21
57.686099
0
LINE
8
Layer 1
10
91.788702
20
57.686099
11
91.370387
21
56.308056
0
LINE
8
Layer 1
10
91.370387
20
56.308056
11
90.673197
21
55.045484
0
LINE
8
Layer 1
10
90.673197
20
55.045484
11
89.697130
21
53.898383
0
LINE
8
Layer 1
10
89.697130
20
53.898383
11
89.697100
21
53.898400
0
LINE
8
Layer 1
10
87.378940
20
59.737380
11
87.169783
21
60.831102
0
LINE
8
Layer 1
10
87.169783
20
60.831102
11
86.542311
21
61.741810
0
LINE
8
Layer 1
10
86.542311
20
61.741810
11
85.622888
21
62.369282
0
LINE
8
Layer 1
10
85.622888
20
62.369282
11
84.537881
21
62.578439
0
LINE
8
Layer 1
10
84.537881
20
62.578439
11
81.417900
21
62.578439
0
LINE
8
Layer 1
10
81.417900
20
62.578439
11
81.417900
21
56.338600
0
LINE
8
Layer 1
10
81.417900
20
56.338600
11
84.537830
21
56.338600
0
LINE
8
Layer 1
10
84.537830
20
56.338600
11
85.622838
21
56.543400
0
LINE
8
Layer 1
10
85.622838
20
56.543400
11
86.542260
21
57.157800
0
LINE
8
Layer 1
10
86.542260
20
57.157800
11
87.169732
21
58.081578
0
LINE
8
Layer 1
10
87.169732
20
58.081578
11
87.378889
21
59.179650
0
LINE
8
Layer 1
10
87.378889
20
59.179650
11
87.378940
21
59.737380
0
LINE
8
Layer 1
10
79.709830
20
54.630450
11
79.709830
21
64.286550
0
LINE
8
Layer 1
10
79.709830
20
64.286550
11
84.537880
21
64.286550
0
LINE
8
Layer 1
10
84.537880
20
64.286550
11
85.444230
21
64.203759
0
LINE
8
Layer 1
10
85.444230
20
64.203759
11
86.280860
21
63.955385
0
LINE
8
Layer 1
10
86.280860
20
63.955385
11
87.047770
21
63.541429
0
LINE
8
Layer 1
10
87.047770
20
63.541429
11
87.744960
21
62.961890
0
LINE
8
Layer 1
10
87.744960
20
62.961890
11
88.332124
21
62.257074
0
LINE
8
Layer 1
10
88.332124
20
62.257074
11
88.751528
21
61.484718
0
LINE
8
Layer 1
10
88.751528
20
61.484718
11
89.003169
21
60.644819
0
LINE
8
Layer 1
10
89.003169
20
60.644819
11
89.087050
21
59.737380
0
LINE
8
Layer 1
10
89.087050
20
59.737380
11
89.087050
21
59.179627
0
LINE
8
Layer 1
10
89.087050
20
59.179627
11
89.003169
21
58.272188
0
LINE
8
Layer 1
10
89.003169
20
58.272188
11
88.751528
21
57.432289
0
LINE
8
Layer 1
10
88.751528
20
57.432289
11
88.332124
21
56.659933
0
LINE
8
Layer 1
10
88.332124
20
56.659933
11
87.744960
21
55.955117
0
LINE
8
Layer 1
10
87.744960
20
55.955117
11
87.047770
21
55.375578
0
LINE
8
Layer 1
10
87.047770
20
55.375578
11
86.280860
21
54.961622
0
LINE
8
Layer 1
10
86.280860
20
54.961622
11
85.444230
21
54.713248
0
LINE
8
Layer 1
10
85.444230
20
54.713248
11
84.537880
21
54.630457
0
LINE
8
Layer 1
10
84.537880
20
54.630457
11
79.709830
21
54.630450
0
LINE
8
Layer 1
10
95.065500
20
42.133300
11
95.065500
21
67.127600
0
LINE
8
Layer 1
10
95.065500
20
67.127600
11
108.696000
21
67.127600
0
LINE
8
Layer 1
10
108.696000
20
67.127600
11
108.696000
21
62.578500
0
LINE
8
Layer 1
10
108.696000
20
62.578500
11
99.614600
21
62.578500
0
LINE
8
Layer 1
10
99.614600
20
62.578500
11
99.614600
21
42.133300
0
LINE
8
Layer 1
10
99.614600
20
42.133300
11
95.065500
21
42.133300
0
LINE
8
Layer 1
10
96.773620
20
43.823990
11
97.906560
21
43.823990
0
LINE
8
Layer 1
10
97.906560
20
43.823990
11
97.906560
21
64.286590
0
LINE
8
Layer 1
10
97.906560
20
64.286590
11
107.004910
21
64.286590
0
LINE
8
Layer 1
10
107.004910
20
64.286590
11
107.004910
21
65.419530
0
LINE
8
Layer 1
10
107.004910
20
65.419530
11
96.773600
21
65.419530
0
LINE
8
Layer 1
10
96.773600
20
65.419530
11
96.773620
21
43.823990
0
LINE
8
Layer 1
10
124.940000
20
59.737400
11
124.835421
21
60.871425
0
LINE
8
Layer 1
10
124.835421
20
60.871425
11
124.521685
21
61.920480
0
LINE
8
Layer 1
10
124.521685
20
61.920480
11
123.998791
21
62.884565
0
LINE
8
Layer 1
10
123.998791
20
62.884565
11
123.266740
21
63.763680
0
LINE
8
Layer 1
10
123.266740
20
63.763680
11
122.395251
21
64.488106
0
LINE
8
Layer 1
10
122.395251
20
64.488106
11
121.436612
21
65.005552
0
LINE
8
Layer 1
10
121.436612
20
65.005552
11
120.390826
21
65.316021
0
LINE
8
Layer 1
10
120.390826
20
65.316021
11
119.257890
21
65.419510
0
LINE
8
Layer 1
10
119.257890
20
65.419510
11
118.123865
21
65.316021
0
LINE
8
Layer 1
10
118.123865
20
65.316021
11
117.074810
21
65.005552
0
LINE
8
Layer 1
10
117.074810
20
65.005552
11
116.110725
21
64.488106
0
LINE
8
Layer 1
10
116.110725
20
64.488106
11
115.231610
21
63.763680
0
LINE
8
Layer 1
10
115.231610
20
63.763680
11
114.507184
21
62.884565
0
LINE
8
Layer 1
10
114.507184
20
62.884565
11
113.989738
21
61.920480
0
LINE
8
Layer 1
10
113.989738
20
61.920480
11
113.679269
21
60.871425
0
LINE
8
Layer 1
10
113.679269
20
60.871425
11
113.575780
21
59.737400
0
LINE
8
Layer 1
10
113.575780
20
59.737400
11
113.575780
21
43.824000
0
LINE
8
Layer 1
10
113.575780
20
43.824000
11
114.708710
21
43.824000
0
LINE
8
Layer 1
10
114.708710
20
43.824000
11
114.708710
21
59.737400
0
LINE
8
Layer 1
10
114.708710
20
59.737400
11
114.791502
21
60.644839
0
LINE
8
Layer 1
10
114.791502
20
60.644839
11
115.039878
21
61.484737
0
LINE
8
Layer 1
10
115.039878
20
61.484737
11
115.453837
21
62.257094
0
LINE
8
Layer 1
10
115.453837
20
62.257094
11
116.033380
21
62.961910
0
LINE
8
Layer 1
10
116.033380
20
62.961910
11
116.738196
21
63.541449
0
LINE
8
Layer 1
10
116.738196
20
63.541449
11
117.510553
21
63.955405
0
LINE
8
Layer 1
10
117.510553
20
63.955405
11
118.350451
21
64.203779
0
LINE
8
Layer 1
10
118.350451
20
64.203779
11
119.257890
21
64.286570
0
LINE
8
Layer 1
10
119.257890
20
64.286570
11
120.164236
21
64.203779
0
LINE
8
Layer 1
10
120.164236
20
64.203779
11
121.000865
21
63.955405
0
LINE
8
Layer 1
10
121.000865
20
63.955405
11
121.767776
21
63.541449
0
LINE
8
Layer 1
10
121.767776
20
63.541449
11
122.464970
21
62.961910
0
LINE
8
Layer 1
10
122.464970
20
62.961910
11
123.052134
21
62.257094
0
LINE
8
Layer 1
10
123.052134
20
62.257094
11
123.471538
21
61.484737
0
LINE
8
Layer 1
10
123.471538
20
61.484737
11
123.723179
21
60.644839
0
LINE
8
Layer 1
10
123.723179
20
60.644839
11
123.807060
21
59.737400
0
LINE
8
Layer 1
10
123.807060
20
59.737400
11
123.807060
21
43.824000
0
LINE
8
Layer 1
10
123.807060
20
43.824000
11
124.940000
21
43.824000
0
LINE
8
Layer 1
10
124.940000
20
43.824000
11
124.940000
21
59.737400
0
LINE
8
Layer 1
10
122.098940
20
42.133300
11
122.098940
21
59.737400
0
LINE
8
Layer 1
10
122.098940
20
59.737400
11
121.889783
21
60.831123
0
LINE
8
Layer 1
10
121.889783
20
60.831123
11
121.262310
21
61.741830
0
LINE
8
Layer 1
10
121.262310
20
61.741830
11
120.342890
21
62.369302
0
LINE
8
Layer 1
10
120.342890
20
62.369302
11
119.257890
21
62.578459
0
LINE
8
Layer 1
10
119.257890
20
62.578459
11
118.164167
21
62.369302
0
LINE
8
Layer 1
10
118.164167
20
62.369302
11
117.253460
21
61.741830
0
LINE
8
Layer 1
10
117.253460
20
61.741830
11
116.625987
21
60.831123
0
LINE
8
Layer 1
10
116.625987
20
60.831123
11
116.416830
21
59.737400
0
LINE
8
Layer 1
10
116.416830
20
59.737400
11
116.416830
21
42.133300
0
LINE
8
Layer 1
10
116.416830
20
42.133300
11
111.867660
21
42.133300
0
LINE
8
Layer 1
10
111.867660
20
42.133300
11
111.867660
21
59.737400
0
LINE
8
Layer 1
10
111.867660
20
59.737400
11
112.002741
21
61.208037
0
LINE
8
Layer 1
10
112.002741
20
61.208037
11
112.407982
21
62.569740
0
LINE
8
Layer 1
10
112.407982
20
62.569740
11
113.083386
21
63.822507
0
LINE
8
Layer 1
10
113.083386
20
63.822507
11
114.028950
21
64.966340
0
LINE
8
Layer 1
10
114.028950
20
64.966340
11
115.172779
21
65.911904
0
LINE
8
Layer 1
10
115.172779
20
65.911904
11
116.425545
21
66.587307
0
LINE
8
Layer 1
10
116.425545
20
66.587307
11
117.787249
21
66.992549
0
LINE
8
Layer 1
10
117.787249
20
66.992549
11
119.257890
21
67.127630
0
LINE
8
Layer 1
10
119.257890
20
67.127630
11
120.727437
21
66.992549
0
LINE
8
Layer 1
10
120.727437
20
66.992549
11
122.085870
21
66.587307
0
LINE
8
Layer 1
10
122.085870
20
66.587307
11
123.333187
21
65.911904
0
LINE
8
Layer 1
10
123.333187
20
65.911904
11
124.469390
21
64.966340
0
LINE
8
Layer 1
10
124.469390
20
64.966340
11
125.422584
21
63.822511
0
LINE
8
Layer 1
10
125.422584
20
63.822511
11
126.103437
21
62.569745
0
LINE
8
Layer 1
10
126.103437
20
62.569745
11
126.511949
21
61.208041
0
LINE
8
Layer 1
10
126.511949
20
61.208041
11
126.648120
21
59.737400
0
LINE
8
Layer 1
10
126.648120
20
59.737400
11
126.648120
21
42.133300
0
LINE
8
Layer 1
10
126.648120
20
42.133300
11
122.098940
21
42.133300
0
LINE
8
Layer 1
10
129.786000
20
42.133300
11
129.786000
21
67.127600
0
LINE
8
Layer 1
10
129.786000
20
67.127600
11
144.566500
21
67.127600
0
LINE
8
Layer 1
10
144.566500
20
67.127600
11
144.566500
21
62.578430
0
LINE
8
Layer 1
10
144.566500
20
62.578430
11
134.335200
21
62.578430
0
LINE
8
Layer 1
10
134.335200
20
62.578430
11
134.335200
21
56.896320
0
LINE
8
Layer 1
10
134.335200
20
56.896320
11
142.283180
21
56.896320
0
LINE
8
Layer 1
10
142.283180
20
56.896320
11
142.283180
21
52.347150
0
LINE
8
Layer 1
10
142.283180
20
52.347150
11
134.335200
21
52.347150
0
LINE
8
Layer 1
10
134.335200
20
52.347150
11
134.335200
21
46.665040
0
LINE
8
Layer 1
10
134.335200
20
46.665040
11
144.566500
21
46.665040
0
LINE
8
Layer 1
10
144.566500
20
46.665040
11
144.566500
21
42.133300
0
LINE
8
Layer 1
10
144.566500
20
42.133300
11
129.786000
21
42.133300
0
LINE
8
Layer 1
10
131.494120
20
43.823990
11
142.858320
21
43.823990
0
LINE
8
Layer 1
10
142.858320
20
43.823990
11
142.858320
21
44.974360
0
LINE
8
Layer 1
10
142.858320
20
44.974360
11
132.627020
21
44.974360
0
LINE
8
Layer 1
10
132.627020
20
44.974360
11
132.627020
21
54.055280
0
LINE
8
Layer 1
10
132.627020
20
54.055280
11
140.592430
21
54.055280
0
LINE
8
Layer 1
10
140.592430
20
54.055280
11
140.592430
21
55.188220
0
LINE
8
Layer 1
10
140.592430
20
55.188220
11
132.627020
21
55.188220
0
LINE
8
Layer 1
10
132.627020
20
55.188220
11
132.627020
21
64.286570
0
LINE
8
Layer 1
10
132.627020
20
64.286570
11
142.858320
21
64.286570
0
LINE
8
Layer 1
10
142.858320
20
64.286570
11
142.858320
21
65.419510
0
LINE
8
Layer 1
10
142.858320
20
65.419510
11
131.494120
21
65.419510
0
LINE
8
Layer 1
10
131.494120
20
65.419510
11
131.494120
21
43.823990
 0 
ENDSEC
 0 
EOF